<svg id="svg" version="1.1" xmlns="http://www.w3.org/2000/svg" xmlns:xlink="http://www.w3.org/1999/xlink" width="400" height="400" viewBox="0, 0, 400,400"><g id="svgg"><path id="path0" d="M170.200 1.008 C 80.491 14.482,14.412 79.926,0.981 168.600 C -0.374 177.549,-0.512 219.324,0.783 228.400 C 10.066 293.419,48.570 347.793,106.098 377.122 C 205.704 427.904,328.070 389.451,377.611 291.800 C 425.089 198.216,394.054 83.306,306.702 29.261 C 284.042 15.241,259.147 6.086,230.800 1.347 L 224.200 0.244 200.400 0.145 C 177.054 0.049,176.478 0.066,170.200 1.008 M208.000 24.411 C 222.765 25.255,236.936 27.762,251.147 32.045 C 271.858 38.288,275.640 42.601,266.800 49.893 C 259.022 56.309,257.267 58.316,253.800 64.748 C 250.702 70.497,247.151 74.003,241.600 76.792 C 233.771 80.726,230.534 84.967,229.795 92.257 C 229.064 99.458,228.618 100.800,224.285 108.832 C 217.560 121.297,219.351 129.773,230.190 136.786 C 240.374 143.376,244.838 144.045,251.476 139.976 C 257.154 136.495,260.372 136.431,266.844 139.670 C 270.123 141.311,271.675 142.674,278.458 149.871 C 283.216 154.918,288.948 157.272,294.770 156.572 C 300.707 155.857,313.430 151.101,317.200 148.187 C 320.925 145.308,321.690 145.049,325.380 145.421 C 335.873 146.476,338.603 145.375,343.810 137.986 C 348.273 131.653,351.090 130.643,356.889 133.298 C 361.744 135.520,363.887 138.404,366.332 146.000 C 372.221 164.301,375.689 189.534,374.480 205.291 C 373.816 213.950,372.815 215.044,366.000 214.558 C 363.690 214.393,359.280 214.245,356.200 214.229 C 349.064 214.192,348.810 214.063,341.641 206.847 C 326.608 191.714,319.692 191.632,302.200 206.375 C 298.013 209.903,296.608 210.810,291.200 213.466 C 282.093 217.940,280.083 220.241,275.200 231.778 C 271.836 239.726,270.138 241.248,262.226 243.403 C 260.060 243.993,256.108 245.427,253.443 246.589 C 248.425 248.778,246.656 249.249,240.646 250.000 C 229.573 251.384,226.083 256.689,223.806 275.600 C 223.449 278.570,222.890 283.148,222.564 285.773 C 222.239 288.397,221.006 294.337,219.825 298.973 C 215.512 315.893,216.044 317.773,229.396 332.800 C 241.819 346.782,243.912 353.031,239.383 362.613 C 236.180 369.391,232.125 371.726,222.000 372.623 C 216.223 373.135,214.044 371.718,210.600 365.211 C 207.137 358.667,204.002 356.247,196.648 354.440 C 190.684 352.974,189.273 351.857,182.961 343.600 C 175.647 334.033,173.445 333.421,160.200 337.274 C 148.046 340.809,144.426 343.729,141.680 352.213 C 138.378 362.417,135.807 362.985,122.533 356.441 C 104.983 347.790,103.056 346.060,103.105 339.000 C 103.219 322.668,104.389 320.814,112.680 323.822 C 127.258 329.110,138.256 327.222,148.000 317.759 C 153.505 312.413,154.611 311.710,159.600 310.391 C 172.401 307.005,173.844 301.269,166.789 281.802 C 164.644 275.884,164.328 274.612,163.830 269.881 C 162.919 261.233,161.340 258.109,153.847 250.127 C 146.854 242.677,146.657 241.290,151.714 235.122 C 152.921 233.649,155.078 230.769,156.505 228.722 C 161.743 221.212,165.934 218.606,173.887 217.913 C 182.788 217.138,186.808 214.080,192.704 203.600 C 198.529 193.244,196.462 183.337,187.079 176.641 C 181.407 172.594,178.131 171.960,168.141 172.980 C 158.117 174.003,156.108 173.452,149.162 167.769 C 139.625 159.966,139.434 157.593,147.144 142.708 C 151.804 133.712,152.573 131.437,152.311 127.432 C 151.826 120.003,145.868 113.985,134.400 109.341 C 125.140 105.590,119.732 104.473,104.621 103.187 C 87.619 101.740,85.261 100.113,87.206 91.173 C 88.420 85.594,88.191 81.320,86.383 75.800 C 84.161 69.014,84.643 67.092,89.660 62.729 C 105.797 48.696,132.266 35.453,155.800 29.636 C 173.833 25.180,191.131 23.448,208.000 24.411 M178.400 49.207 C 173.553 49.593,170.611 50.595,164.400 53.977 C 161.650 55.474,157.733 57.551,155.696 58.592 C 142.152 65.514,143.009 76.316,158.066 88.471 C 161.134 90.949,162.152 92.097,164.670 95.924 C 171.043 105.607,177.410 105.695,184.189 96.195 C 186.311 93.220,188.547 91.539,191.624 90.605 C 192.821 90.242,194.929 89.597,196.309 89.172 C 202.271 87.337,204.658 83.983,205.402 76.400 C 205.542 74.970,206.094 72.156,206.628 70.146 C 210.395 55.979,199.052 47.565,178.400 49.207 M293.779 52.023 C 311.514 62.803,332.825 83.718,345.314 102.600 C 352.620 113.647,352.674 116.063,345.668 118.561 C 341.724 119.966,339.719 121.429,337.587 124.455 C 333.628 130.073,331.521 131.422,327.773 130.733 C 319.596 129.230,316.954 129.946,311.409 135.168 C 307.592 138.764,305.097 140.193,299.793 141.820 C 292.518 144.051,290.966 143.537,284.200 136.644 C 273.749 125.999,260.278 121.558,250.000 125.369 C 242.556 128.129,240.381 128.093,237.040 125.152 C 233.560 122.088,233.627 119.735,237.398 112.579 C 240.428 106.829,241.348 104.200,242.011 99.400 C 242.968 92.472,243.891 91.088,250.342 86.900 C 257.947 81.962,260.647 78.966,264.795 70.861 C 267.142 66.276,269.327 63.677,274.582 59.215 C 276.427 57.649,278.960 55.101,280.211 53.552 C 284.628 48.085,286.882 47.831,293.779 52.023 M189.307 61.676 C 196.680 64.318,194.945 76.073,186.757 78.962 C 185.570 79.380,182.814 80.595,180.630 81.661 C 174.855 84.482,173.408 84.329,167.400 80.263 C 159.687 75.043,158.520 71.159,163.675 67.864 C 173.400 61.647,182.855 59.365,189.307 61.676 M72.413 83.207 C 73.806 83.952,74.094 86.310,73.199 89.636 C 70.694 98.941,70.703 98.895,70.887 102.081 C 71.370 110.429,75.850 114.031,87.200 115.197 C 89.510 115.435,93.411 115.982,95.868 116.412 C 98.326 116.843,103.366 117.469,107.068 117.803 C 127.549 119.652,138.267 124.385,137.020 131.032 C 136.878 131.791,135.235 135.514,133.369 139.306 C 123.786 158.778,125.438 166.873,141.492 179.103 C 152.017 187.121,155.389 188.021,168.142 186.215 C 174.603 185.300,177.447 185.884,180.075 188.663 C 185.237 194.124,179.188 204.400,170.811 204.400 C 167.554 204.400,162.992 206.175,156.400 210.009 C 152.381 212.346,150.336 214.404,146.764 219.708 C 144.611 222.906,142.428 225.570,140.462 227.400 C 126.883 240.039,126.992 242.456,141.827 257.600 C 149.346 265.276,149.830 266.133,150.608 273.131 C 151.207 278.518,151.699 280.270,154.382 286.563 C 157.771 294.515,157.218 296.111,149.801 299.764 C 145.354 301.954,144.666 302.456,140.401 306.615 C 131.940 314.867,126.158 315.684,114.913 310.212 C 108.473 307.079,105.854 306.484,102.396 307.370 C 95.575 309.117,91.631 315.152,91.607 323.880 C 91.577 334.634,87.745 334.771,77.056 324.400 C 12.150 261.426,6.021 158.867,63.012 89.386 C 67.763 83.593,70.174 82.009,72.413 83.207 M235.098 169.208 C 231.532 170.111,223.389 175.643,220.067 179.418 C 214.779 185.427,213.038 193.432,215.501 200.400 C 215.929 201.610,216.958 205.210,217.787 208.400 C 221.005 220.782,225.516 225.808,233.400 225.794 C 237.108 225.788,237.899 225.455,242.400 222.011 C 246.132 219.155,246.830 218.804,251.873 217.249 C 258.482 215.211,260.261 213.257,267.567 200.000 C 270.595 194.507,269.339 188.189,264.226 183.191 C 261.696 180.718,252.255 173.452,249.391 171.773 C 245.457 169.468,238.793 168.272,235.098 169.208 M243.912 183.995 C 247.039 185.414,252.802 190.110,253.834 192.080 C 256.221 196.635,251.452 203.824,244.600 206.000 C 243.720 206.279,241.263 207.204,239.140 208.054 C 232.167 210.846,230.977 210.011,228.177 200.360 C 225.389 190.747,227.051 187.434,236.300 184.170 C 239.575 183.014,241.646 182.966,243.912 183.995 M324.481 210.816 C 326.576 211.398,328.982 213.422,335.756 220.301 C 344.451 229.132,346.185 229.815,354.800 227.801 C 366.993 224.952,371.992 230.011,369.026 242.200 C 356.889 292.069,319.875 336.449,272.459 357.986 C 255.448 365.712,253.600 365.371,253.600 354.505 C 253.600 344.381,250.125 336.961,239.416 324.218 C 230.104 313.136,229.862 312.244,233.184 301.270 C 235.268 294.386,236.141 290.017,237.397 280.200 C 238.693 270.076,239.456 267.385,241.572 265.473 C 243.188 264.013,243.810 263.773,249.464 262.424 C 251.260 261.995,254.945 260.631,257.653 259.392 C 260.361 258.153,264.202 256.692,266.188 256.145 C 273.390 254.163,275.355 253.436,277.644 251.907 C 281.607 249.261,283.156 246.945,288.333 235.927 C 291.495 229.199,293.050 227.532,298.733 224.780 C 303.432 222.504,305.425 221.183,310.200 217.183 C 317.043 211.450,320.774 209.786,324.481 210.816 M170.644 350.027 C 171.430 350.513,173.433 352.640,175.095 354.755 C 181.811 363.298,184.210 365.031,192.282 367.175 C 197.354 368.521,197.727 372.705,192.841 373.449 C 187.647 374.239,165.974 371.412,157.144 368.792 C 151.097 366.998,149.840 362.625,153.370 355.658 C 156.103 350.266,165.875 347.080,170.644 350.027 " stroke="none" fill="#040404" fill-rule="evenodd"></path><path id="path1" d="M189.186 24.430 C 171.731 25.432,150.990 29.930,135.800 36.006 C 117.569 43.299,100.906 52.949,89.660 62.729 C 84.643 67.092,84.161 69.014,86.383 75.800 C 88.191 81.320,88.420 85.594,87.206 91.173 C 85.261 100.113,87.619 101.740,104.621 103.187 C 119.732 104.473,125.140 105.590,134.400 109.341 C 145.868 113.985,151.826 120.003,152.311 127.432 C 152.573 131.437,151.804 133.712,147.144 142.708 C 139.434 157.593,139.625 159.966,149.162 167.769 C 156.108 173.452,158.117 174.003,168.141 172.980 C 178.131 171.960,181.407 172.594,187.079 176.641 C 196.462 183.337,198.529 193.244,192.704 203.600 C 186.808 214.080,182.788 217.138,173.887 217.913 C 165.934 218.606,161.743 221.212,156.505 228.722 C 155.078 230.769,152.921 233.649,151.714 235.122 C 146.657 241.290,146.854 242.677,153.847 250.127 C 161.340 258.109,162.919 261.233,163.830 269.881 C 164.328 274.612,164.644 275.884,166.789 281.802 C 173.844 301.269,172.401 307.005,159.600 310.391 C 154.611 311.710,153.505 312.413,148.000 317.759 C 138.256 327.222,127.258 329.110,112.680 323.822 C 104.389 320.814,103.219 322.668,103.105 339.000 C 103.056 346.060,104.983 347.790,122.533 356.441 C 135.807 362.985,138.378 362.417,141.680 352.213 C 144.426 343.729,148.046 340.809,160.200 337.274 C 173.445 333.421,175.647 334.033,182.961 343.600 C 189.273 351.857,190.684 352.974,196.648 354.440 C 204.002 356.247,207.137 358.667,210.600 365.211 C 214.044 371.718,216.223 373.135,222.000 372.623 C 232.125 371.726,236.180 369.391,239.383 362.613 C 243.912 353.031,241.819 346.782,229.396 332.800 C 216.044 317.773,215.512 315.893,219.825 298.973 C 221.006 294.337,222.239 288.397,222.564 285.773 C 222.890 283.148,223.449 278.570,223.806 275.600 C 226.083 256.689,229.573 251.384,240.646 250.000 C 246.656 249.249,248.425 248.778,253.443 246.589 C 256.108 245.427,260.060 243.993,262.226 243.403 C 270.138 241.248,271.836 239.726,275.200 231.778 C 280.083 220.241,282.093 217.940,291.200 213.466 C 296.608 210.810,298.013 209.903,302.200 206.375 C 319.692 191.632,326.608 191.714,341.641 206.847 C 348.810 214.063,349.064 214.192,356.200 214.229 C 359.280 214.245,363.690 214.393,366.000 214.558 C 372.815 215.044,373.816 213.950,374.480 205.291 C 375.689 189.534,372.221 164.301,366.332 146.000 C 363.887 138.404,361.744 135.520,356.889 133.298 C 351.090 130.643,348.273 131.653,343.810 137.986 C 338.603 145.375,335.873 146.476,325.380 145.421 C 321.690 145.049,320.925 145.308,317.200 148.187 C 313.430 151.101,300.707 155.857,294.770 156.572 C 288.948 157.272,283.216 154.918,278.458 149.871 C 271.675 142.674,270.123 141.311,266.844 139.670 C 260.372 136.431,257.154 136.495,251.476 139.976 C 244.838 144.045,240.374 143.376,230.190 136.786 C 219.351 129.773,217.560 121.297,224.285 108.832 C 228.618 100.800,229.064 99.458,229.795 92.257 C 230.534 84.967,233.771 80.726,241.600 76.792 C 247.151 74.003,250.702 70.497,253.800 64.748 C 257.267 58.316,259.022 56.309,266.800 49.893 C 275.640 42.601,271.858 38.288,251.147 32.045 C 230.493 25.820,209.627 23.255,189.186 24.430 M192.750 49.846 C 204.063 52.357,209.316 60.040,206.628 70.146 C 206.094 72.156,205.542 74.970,205.402 76.400 C 204.658 83.983,202.271 87.337,196.309 89.172 C 194.929 89.597,192.821 90.242,191.624 90.605 C 188.547 91.539,186.311 93.220,184.189 96.195 C 177.410 105.695,171.043 105.607,164.670 95.924 C 162.152 92.097,161.134 90.949,158.066 88.471 C 143.009 76.316,142.152 65.514,155.696 58.592 C 157.733 57.551,161.650 55.474,164.400 53.977 C 173.543 48.999,182.835 47.645,192.750 49.846 M245.368 169.982 C 251.869 172.238,265.347 182.982,267.824 187.881 C 269.662 191.518,269.559 196.386,267.567 200.000 C 260.261 213.257,258.482 215.211,251.873 217.249 C 246.830 218.804,246.132 219.155,242.400 222.011 C 237.899 225.455,237.108 225.788,233.400 225.794 C 225.516 225.808,221.005 220.782,217.787 208.400 C 216.958 205.210,215.929 201.610,215.501 200.400 C 212.181 191.010,215.778 181.931,225.761 174.500 C 233.545 168.706,238.441 167.578,245.368 169.982 " stroke="none" fill="#1c7cdc" fill-rule="evenodd"></path><path id="path2" d="M283.743 49.946 C 283.052 50.380,281.463 52.003,280.211 53.552 C 278.960 55.101,276.427 57.649,274.582 59.215 C 269.327 63.677,267.142 66.276,264.795 70.861 C 260.647 78.966,257.947 81.962,250.342 86.900 C 243.891 91.088,242.968 92.472,242.011 99.400 C 241.348 104.200,240.428 106.829,237.398 112.579 C 233.627 119.735,233.560 122.088,237.040 125.152 C 240.381 128.093,242.556 128.129,250.000 125.369 C 260.278 121.558,273.749 125.999,284.200 136.644 C 290.966 143.537,292.518 144.051,299.793 141.820 C 305.097 140.193,307.592 138.764,311.409 135.168 C 316.954 129.946,319.596 129.230,327.773 130.733 C 331.521 131.422,333.628 130.073,337.587 124.455 C 339.719 121.429,341.724 119.966,345.668 118.561 C 352.674 116.063,352.620 113.647,345.314 102.600 C 336.729 89.621,323.560 75.082,310.995 64.713 C 294.875 51.409,287.647 47.492,283.743 49.946 M177.373 61.365 C 174.868 61.938,167.411 65.475,163.675 67.864 C 158.520 71.159,159.687 75.043,167.400 80.263 C 173.408 84.329,174.855 84.482,180.630 81.661 C 182.814 80.595,185.570 79.380,186.757 78.962 C 194.945 76.073,196.680 64.318,189.307 61.676 C 187.083 60.879,180.275 60.702,177.373 61.365 M67.958 84.150 C 63.132 87.855,52.609 102.460,45.616 115.157 C 7.681 184.031,20.532 269.558,77.056 324.400 C 87.745 334.771,91.577 334.634,91.607 323.880 C 91.631 315.152,95.575 309.117,102.396 307.370 C 105.854 306.484,108.473 307.079,114.913 310.212 C 126.158 315.684,131.940 314.867,140.401 306.615 C 144.666 302.456,145.354 301.954,149.801 299.764 C 157.218 296.111,157.771 294.515,154.382 286.563 C 151.699 280.270,151.207 278.518,150.608 273.131 C 149.830 266.133,149.346 265.276,141.827 257.600 C 132.640 248.221,130.812 245.530,130.804 241.371 C 130.795 236.834,131.641 235.610,140.462 227.400 C 142.428 225.570,144.611 222.906,146.764 219.708 C 150.336 214.404,152.381 212.346,156.400 210.009 C 162.992 206.175,167.554 204.400,170.811 204.400 C 179.188 204.400,185.237 194.124,180.075 188.663 C 177.447 185.884,174.603 185.300,168.142 186.215 C 155.389 188.021,152.017 187.121,141.492 179.103 C 125.438 166.873,123.786 158.778,133.369 139.306 C 135.235 135.514,136.878 131.791,137.020 131.032 C 138.267 124.385,127.549 119.652,107.068 117.803 C 103.366 117.469,98.326 116.843,95.868 116.412 C 93.411 115.982,89.510 115.435,87.200 115.197 C 75.850 114.031,71.370 110.429,70.887 102.081 C 70.703 98.895,70.694 98.941,73.199 89.636 C 74.810 83.647,72.187 80.901,67.958 84.150 M236.300 184.170 C 227.051 187.434,225.389 190.747,228.177 200.360 C 230.977 210.011,232.167 210.846,239.140 208.054 C 241.263 207.204,243.720 206.279,244.600 206.000 C 253.265 203.248,257.166 194.612,251.934 189.763 C 245.288 183.603,241.622 182.292,236.300 184.170 M319.787 210.959 C 317.614 211.640,314.070 213.940,310.200 217.183 C 305.425 221.183,303.432 222.504,298.733 224.780 C 293.050 227.532,291.495 229.199,288.333 235.927 C 283.156 246.945,281.607 249.261,277.644 251.907 C 275.355 253.436,273.390 254.163,266.188 256.145 C 264.202 256.692,260.361 258.153,257.653 259.392 C 254.945 260.631,251.260 261.995,249.464 262.424 C 243.810 263.773,243.188 264.013,241.572 265.473 C 239.456 267.385,238.693 270.076,237.397 280.200 C 236.141 290.017,235.268 294.386,233.184 301.270 C 229.862 312.244,230.104 313.136,239.416 324.218 C 250.125 336.961,253.600 344.381,253.600 354.505 C 253.600 365.371,255.448 365.712,272.459 357.986 C 319.875 336.449,356.889 292.069,369.026 242.200 C 371.992 230.011,366.993 224.952,354.800 227.801 C 346.185 229.815,344.451 229.132,335.756 220.301 C 326.170 210.566,324.381 209.520,319.787 210.959 M162.130 349.573 C 150.567 352.698,147.161 365.830,157.144 368.792 C 165.974 371.412,187.647 374.239,192.841 373.449 C 197.727 372.705,197.354 368.521,192.282 367.175 C 184.210 365.031,181.811 363.298,175.095 354.755 C 170.512 348.925,168.098 347.960,162.130 349.573 " stroke="none" fill="#44a414" fill-rule="evenodd"></path></g></svg>