<svg id="svg" version="1.1" xmlns="http://www.w3.org/2000/svg" xmlns:xlink="http://www.w3.org/1999/xlink" width="400" height="400" viewBox="0, 0, 400,400"><g id="svgg"><path id="path0" d="M195.200 61.040 C 191.137 61.221,184.182 62.040,183.586 62.409 C 183.295 62.588,182.990 64.282,182.820 66.654 C 182.436 72.006,179.871 76.912,175.005 81.600 C 170.368 86.066,170.870 88.143,176.883 89.370 C 182.295 90.476,186.115 90.243,189.544 88.600 C 195.609 85.693,202.584 88.746,205.140 95.425 C 205.623 96.685,206.644 98.571,207.411 99.615 C 210.190 103.401,210.483 105.103,209.200 110.000 C 208.239 113.667,208.179 116.121,209.029 116.971 C 210.397 118.340,215.645 117.587,218.834 115.564 C 231.113 107.776,246.345 116.596,238.436 126.915 C 235.772 130.391,235.200 131.642,235.200 134.000 C 235.200 140.196,229.675 144.086,223.642 142.138 C 220.818 141.226,220.107 141.649,217.663 145.695 C 214.108 151.582,214.170 152.844,218.332 159.148 C 222.993 166.210,223.066 169.791,218.726 178.600 C 215.363 185.427,213.735 185.987,199.600 185.173 L 196.600 185.000 193.000 187.575 C 186.275 192.385,185.232 193.271,182.931 196.137 C 179.547 200.351,178.775 200.729,175.155 199.953 C 172.447 199.372,170.724 197.789,169.663 194.908 C 168.284 191.164,166.207 189.186,157.861 183.667 C 150.333 178.688,148.673 177.150,147.776 174.323 C 147.177 172.436,136.586 168.501,133.314 168.950 C 128.469 169.614,125.298 174.686,124.905 182.400 C 124.714 186.149,124.735 186.208,128.764 193.158 C 134.553 203.141,133.905 207.431,125.739 213.200 C 119.287 217.758,115.947 220.816,112.067 225.716 C 106.480 232.772,103.959 232.846,87.854 226.428 C 77.828 222.433,69.767 219.880,68.141 220.185 C 65.633 220.655,61.600 225.770,61.600 228.481 C 61.600 231.965,65.900 247.910,68.873 255.449 L 70.469 259.497 73.469 257.694 C 75.119 256.703,77.675 254.666,79.149 253.168 C 84.963 247.261,88.406 248.117,92.578 256.507 L 94.606 260.584 98.498 262.615 C 104.512 265.754,105.413 266.869,105.866 271.730 C 106.186 275.167,105.426 276.860,102.922 278.293 C 101.865 278.897,99.740 280.678,98.200 282.249 C 94.816 285.701,94.276 286.000,91.413 286.000 C 88.714 286.000,88.153 286.795,89.051 289.343 C 89.350 290.191,89.506 291.029,89.397 291.205 C 89.091 291.701,98.759 303.182,102.276 306.499 L 103.441 307.597 106.620 305.170 C 116.938 297.293,120.025 293.753,120.283 289.502 C 120.586 284.508,122.380 282.109,126.500 281.187 C 129.812 280.446,131.079 281.025,134.022 284.626 C 141.507 293.787,154.972 297.815,165.400 294.013 C 176.111 290.108,184.208 288.646,187.016 290.110 C 189.390 291.348,197.057 298.682,197.940 300.561 C 200.115 305.190,201.472 312.697,200.801 316.397 C 199.960 321.034,201.656 323.154,208.957 326.593 C 215.381 329.619,218.270 333.217,221.609 342.352 L 222.723 345.400 224.461 345.266 C 237.451 344.268,261.254 335.617,276.718 326.274 C 281.146 323.599,279.900 322.726,274.000 324.371 C 264.652 326.977,264.924 326.934,262.670 326.181 C 261.531 325.801,258.620 325.259,256.200 324.976 C 251.106 324.381,251.094 324.372,246.600 317.819 C 243.689 313.574,243.435 311.755,245.357 308.905 C 247.991 304.998,241.760 301.942,235.762 304.200 C 228.620 306.888,226.585 303.391,229.955 294.224 C 231.856 289.052,232.834 287.720,235.944 286.062 C 238.263 284.826,240.000 283.192,240.000 282.246 C 240.003 278.108,245.594 272.690,251.600 271.005 C 255.504 269.910,255.913 268.544,253.821 263.600 C 251.853 258.950,251.793 258.502,252.612 254.600 C 253.637 249.715,254.211 249.119,258.249 248.751 C 260.242 248.569,262.356 248.060,264.000 247.365 C 266.314 246.387,267.128 246.260,271.400 246.215 C 275.205 246.175,276.704 245.985,278.629 245.302 C 280.047 244.798,282.626 244.329,284.829 244.174 C 291.467 243.708,296.899 241.405,301.566 237.081 C 307.518 231.566,311.909 231.071,311.503 235.960 C 311.324 238.128,312.474 242.263,314.170 245.542 C 315.150 247.438,320.878 250.263,324.200 250.489 C 330.022 250.886,331.837 252.720,331.476 257.839 C 331.251 261.023,331.631 263.200,332.410 263.200 C 332.900 263.200,337.058 252.819,338.786 247.280 C 343.438 232.378,346.267 211.708,345.376 199.141 C 345.051 194.551,344.509 193.868,340.813 193.387 C 336.157 192.782,334.092 190.899,330.670 184.139 C 327.625 178.125,325.512 179.382,317.800 191.795 C 312.180 200.841,311.273 201.868,306.903 204.126 C 304.976 205.122,302.770 206.371,302.000 206.901 C 301.230 207.431,299.900 208.345,299.044 208.932 C 297.113 210.258,296.103 210.271,293.676 209.002 C 287.547 205.797,278.752 206.773,274.642 211.115 C 269.712 216.322,266.242 215.704,258.689 208.273 C 247.102 196.872,247.580 189.739,259.910 190.069 C 267.162 190.263,268.854 187.372,267.362 177.330 C 266.306 170.222,267.108 167.449,271.631 162.566 C 277.861 155.842,277.695 148.018,270.989 132.358 C 266.887 122.780,267.000 121.423,272.370 115.800 C 274.757 113.299,275.673 111.988,276.560 109.800 C 278.805 104.262,285.512 91.245,286.923 89.685 C 287.799 88.717,286.801 87.891,279.000 83.132 C 252.779 67.135,224.680 59.727,195.200 61.040 M217.897 227.433 C 225.252 228.952,226.299 230.629,225.196 239.124 C 224.647 243.349,223.642 245.244,219.877 249.152 C 213.752 255.510,211.579 258.131,209.389 261.801 C 206.353 266.888,205.734 267.403,202.667 267.386 C 196.728 267.354,188.361 260.065,186.652 253.436 C 186.283 252.003,185.304 250.001,184.167 248.352 C 178.818 240.594,181.246 234.899,190.459 233.593 C 193.045 233.226,193.536 232.996,197.499 230.302 C 200.478 228.277,200.264 228.343,208.000 227.073 C 210.400 226.679,215.071 226.849,217.897 227.433 M241.598 235.543 C 243.412 236.395,243.922 237.816,243.279 240.222 C 242.999 241.268,242.901 242.916,243.045 244.142 C 243.488 247.913,241.626 249.807,237.008 250.284 C 233.036 250.694,230.754 248.741,230.191 244.448 C 230.058 243.432,229.657 241.911,229.300 241.069 C 228.518 239.224,229.088 236.251,230.442 235.111 C 231.517 234.207,239.404 234.513,241.598 235.543 M242.800 255.400 C 243.074 255.730,243.339 256.855,243.389 257.900 C 243.439 258.945,243.614 260.357,243.778 261.038 C 244.058 262.206,243.920 262.406,241.351 264.538 C 237.776 267.505,235.629 267.309,235.587 264.011 C 235.580 263.455,235.310 262.651,234.987 262.224 C 232.432 258.845,240.100 252.147,242.800 255.400 " stroke="none" fill="#1c7cdc" fill-rule="evenodd"></path><path id="path1" d="M190.600 57.197 C 101.128 64.688,39.677 148.255,58.822 236.400 C 73.388 303.461,133.419 351.158,203.000 350.954 C 297.376 350.679,366.139 264.421,345.978 171.600 C 334.051 116.691,289.883 72.594,234.600 60.401 C 221.158 57.437,203.281 56.135,190.600 57.197 M220.800 62.208 C 242.613 65.234,259.781 71.407,279.000 83.132 C 286.801 87.891,287.799 88.717,286.923 89.685 C 285.512 91.245,278.805 104.262,276.560 109.800 C 275.673 111.988,274.757 113.299,272.370 115.800 C 267.000 121.423,266.887 122.780,270.989 132.358 C 277.695 148.018,277.861 155.842,271.631 162.566 C 267.108 167.449,266.306 170.222,267.362 177.330 C 268.854 187.372,267.162 190.263,259.910 190.069 C 247.580 189.739,247.102 196.872,258.689 208.273 C 266.242 215.704,269.712 216.322,274.642 211.115 C 278.752 206.773,287.547 205.797,293.676 209.002 C 296.103 210.271,297.113 210.258,299.044 208.932 C 299.900 208.345,301.230 207.431,302.000 206.901 C 302.770 206.371,304.976 205.122,306.903 204.126 C 311.273 201.868,312.180 200.841,317.800 191.795 C 325.512 179.382,327.625 178.125,330.670 184.139 C 334.092 190.899,336.157 192.782,340.813 193.387 C 344.509 193.868,345.051 194.551,345.376 199.141 C 346.267 211.708,343.438 232.378,338.786 247.280 C 337.058 252.819,332.900 263.200,332.410 263.200 C 331.631 263.200,331.251 261.023,331.476 257.839 C 331.837 252.720,330.022 250.886,324.200 250.489 C 320.878 250.263,315.150 247.438,314.170 245.542 C 312.474 242.263,311.324 238.128,311.503 235.960 C 311.909 231.071,307.518 231.566,301.566 237.081 C 296.899 241.405,291.467 243.708,284.829 244.174 C 282.626 244.329,280.047 244.798,278.629 245.302 C 276.704 245.985,275.205 246.175,271.400 246.215 C 267.128 246.260,266.314 246.387,264.000 247.365 C 262.356 248.060,260.242 248.569,258.249 248.751 C 254.211 249.119,253.637 249.715,252.612 254.600 C 251.793 258.502,251.853 258.950,253.821 263.600 C 255.913 268.544,255.504 269.910,251.600 271.005 C 245.594 272.690,240.003 278.108,240.000 282.246 C 240.000 283.192,238.263 284.826,235.944 286.062 C 232.834 287.720,231.856 289.052,229.955 294.224 C 226.585 303.391,228.620 306.888,235.762 304.200 C 241.760 301.942,247.991 304.998,245.357 308.905 C 243.435 311.755,243.689 313.574,246.600 317.819 C 251.094 324.372,251.106 324.381,256.200 324.976 C 258.620 325.259,261.531 325.801,262.670 326.181 C 264.924 326.934,264.652 326.977,274.000 324.371 C 279.900 322.726,281.146 323.599,276.718 326.274 C 261.254 335.617,237.451 344.268,224.461 345.266 L 222.723 345.400 221.609 342.352 C 218.270 333.217,215.381 329.619,208.957 326.593 C 201.656 323.154,199.960 321.034,200.801 316.397 C 201.472 312.697,200.115 305.190,197.940 300.561 C 197.057 298.682,189.390 291.348,187.016 290.110 C 184.208 288.646,176.111 290.108,165.400 294.013 C 154.972 297.815,141.507 293.787,134.022 284.626 C 128.484 277.849,120.825 280.567,120.283 289.502 C 120.025 293.753,116.938 297.293,106.620 305.170 L 103.441 307.597 102.276 306.499 C 98.759 303.182,89.091 291.701,89.397 291.205 C 89.506 291.029,89.350 290.191,89.051 289.343 C 88.153 286.795,88.714 286.000,91.413 286.000 C 94.276 286.000,94.816 285.701,98.200 282.249 C 99.740 280.678,101.865 278.897,102.922 278.293 C 105.426 276.860,106.186 275.167,105.866 271.730 C 105.413 266.869,104.512 265.754,98.498 262.615 L 94.606 260.584 92.578 256.507 C 88.406 248.117,84.963 247.261,79.149 253.168 C 77.675 254.666,75.119 256.703,73.469 257.694 L 70.469 259.497 68.873 255.449 C 65.900 247.910,61.600 231.965,61.600 228.481 C 61.600 225.770,65.633 220.655,68.141 220.185 C 69.767 219.880,77.828 222.433,87.854 226.428 C 103.959 232.846,106.480 232.772,112.067 225.716 C 115.947 220.816,119.287 217.758,125.739 213.200 C 133.905 207.431,134.553 203.141,128.764 193.158 C 124.735 186.208,124.714 186.149,124.905 182.400 C 125.298 174.686,128.469 169.614,133.314 168.950 C 136.586 168.501,147.177 172.436,147.776 174.323 C 148.673 177.150,150.333 178.688,157.861 183.667 C 166.207 189.186,168.284 191.164,169.663 194.908 C 170.724 197.789,172.447 199.372,175.155 199.953 C 178.775 200.729,179.547 200.351,182.931 196.137 C 185.232 193.271,186.275 192.385,193.000 187.575 L 196.600 185.000 199.600 185.173 C 213.735 185.987,215.363 185.427,218.726 178.600 C 223.066 169.791,222.993 166.210,218.332 159.148 C 214.170 152.844,214.108 151.582,217.663 145.695 C 220.107 141.649,220.818 141.226,223.642 142.138 C 229.675 144.086,235.200 140.196,235.200 134.000 C 235.200 131.642,235.772 130.391,238.436 126.915 C 241.972 122.302,241.846 119.522,237.931 115.719 C 233.955 111.858,224.795 111.784,218.834 115.564 C 215.645 117.587,210.397 118.340,209.029 116.971 C 208.179 116.121,208.239 113.667,209.200 110.000 C 210.483 105.103,210.190 103.401,207.411 99.615 C 206.644 98.571,205.623 96.685,205.140 95.425 C 202.584 88.746,195.609 85.693,189.544 88.600 C 186.115 90.243,182.295 90.476,176.883 89.370 C 170.870 88.143,170.368 86.066,175.005 81.600 C 179.871 76.912,182.436 72.006,182.820 66.654 C 182.990 64.282,183.295 62.588,183.586 62.409 C 186.399 60.670,208.845 60.549,220.800 62.208 M181.123 65.204 C 181.346 69.932,178.479 75.530,173.270 80.532 C 166.501 87.033,169.467 91.531,181.013 92.274 C 185.065 92.535,188.076 91.893,191.098 90.121 C 195.216 87.708,200.950 90.813,203.799 97.000 C 204.509 98.540,205.744 100.763,206.544 101.940 C 208.252 104.452,208.346 105.561,207.200 109.697 C 204.555 119.241,209.462 122.325,219.496 117.426 C 227.504 113.517,232.652 113.486,236.604 117.325 C 239.914 120.540,239.982 122.012,236.986 125.600 C 234.386 128.714,233.600 130.398,233.600 132.858 C 233.600 138.686,229.564 141.905,224.159 140.389 C 220.084 139.245,219.028 139.744,216.091 144.200 C 211.645 150.946,211.770 153.324,216.990 161.332 C 220.711 167.040,220.752 169.337,217.270 176.823 C 214.084 183.673,212.040 184.496,201.552 183.151 C 196.927 182.558,195.877 182.811,191.933 185.475 C 186.488 189.153,184.107 191.225,181.560 194.499 C 178.651 198.240,178.238 198.495,175.812 198.042 C 173.421 197.595,172.290 196.500,171.238 193.617 C 169.595 189.111,166.220 185.940,157.600 180.805 C 152.638 177.848,151.438 176.810,150.202 174.400 C 148.939 171.937,147.914 171.080,144.219 169.396 C 131.668 163.676,124.988 167.333,122.835 181.104 C 122.183 185.273,122.769 187.421,126.188 193.392 C 132.497 204.408,132.258 206.127,123.600 212.011 C 117.606 216.086,114.606 218.846,110.763 223.823 C 105.818 230.230,104.917 230.314,92.800 225.495 C 83.953 221.977,71.227 217.977,69.047 218.030 C 66.130 218.102,63.464 219.930,61.950 222.898 C 60.557 225.628,59.821 222.172,59.264 210.293 C 55.895 138.384,107.352 74.837,178.800 62.671 C 180.870 62.319,180.993 62.453,181.123 65.204 M292.356 92.552 C 321.368 116.170,339.104 147.826,344.428 185.496 C 345.436 192.628,345.385 193.003,343.518 192.225 C 342.793 191.923,341.343 191.548,340.295 191.392 C 337.685 191.002,336.858 190.232,333.970 185.499 C 327.346 174.644,324.804 175.780,313.464 194.666 C 310.984 198.796,308.652 201.066,305.040 202.865 C 303.258 203.753,300.780 205.271,299.534 206.239 C 296.901 208.285,296.648 208.322,294.211 207.026 C 287.672 203.550,278.082 204.746,273.178 209.650 C 268.639 214.189,266.517 213.652,259.200 206.114 C 249.824 196.454,250.134 192.000,260.181 192.000 C 268.018 192.000,270.839 188.100,269.614 178.962 C 268.491 170.583,269.075 168.206,273.384 163.617 C 280.248 156.308,279.743 146.213,271.636 128.688 C 269.143 123.300,269.458 121.757,274.039 116.916 C 277.017 113.768,277.407 113.110,280.146 106.600 C 281.164 104.180,282.637 101.141,283.419 99.846 C 284.201 98.551,285.379 96.305,286.037 94.854 C 288.313 89.834,288.799 89.657,292.356 92.552 M208.000 227.073 C 200.264 228.343,200.478 228.277,197.499 230.302 C 193.536 232.996,193.045 233.226,190.459 233.593 C 181.246 234.899,178.818 240.594,184.167 248.352 C 185.304 250.001,186.283 252.003,186.652 253.436 C 188.361 260.065,196.728 267.354,202.667 267.386 C 205.734 267.403,206.353 266.888,209.389 261.801 C 211.579 258.131,213.752 255.510,219.877 249.152 C 224.400 244.457,225.547 241.406,225.588 233.954 C 225.616 228.804,217.294 225.548,208.000 227.073 M218.728 229.811 C 223.396 230.873,223.914 231.639,223.453 236.800 C 222.971 242.187,222.611 242.976,218.798 246.997 C 213.769 252.299,209.931 257.009,207.876 260.400 C 204.413 266.114,203.117 266.532,198.142 263.539 C 192.969 260.427,189.647 256.580,188.455 252.321 C 188.042 250.843,186.980 248.682,185.890 247.097 C 181.573 240.821,183.321 236.295,190.400 235.419 C 193.133 235.081,195.160 234.199,198.571 231.864 C 200.299 230.681,201.817 229.969,202.914 229.828 C 203.841 229.708,205.050 229.543,205.600 229.460 C 208.386 229.040,216.263 229.250,218.728 229.811 M230.442 235.111 C 229.088 236.251,228.518 239.224,229.300 241.069 C 229.657 241.911,230.058 243.432,230.191 244.448 C 230.754 248.741,233.036 250.694,237.008 250.284 C 241.626 249.807,243.488 247.913,243.045 244.142 C 242.901 242.916,242.999 241.268,243.279 240.222 C 244.339 236.259,242.652 235.014,235.731 234.655 C 231.866 234.454,231.150 234.515,230.442 235.111 M309.668 236.682 C 309.566 238.230,309.871 239.594,311.002 242.647 C 312.814 247.539,312.882 247.630,316.032 249.448 C 320.870 252.240,321.285 252.400,323.697 252.400 C 328.696 252.400,330.059 253.809,329.719 258.623 C 329.502 261.702,329.560 262.062,330.543 263.739 C 331.894 266.043,332.045 265.391,328.758 271.403 C 327.194 274.261,325.884 276.789,325.846 277.019 C 325.459 279.361,316.039 292.124,307.856 301.394 C 303.191 306.678,289.035 319.200,287.726 319.200 C 287.516 319.200,286.637 319.796,285.772 320.525 C 282.726 323.092,282.485 323.195,280.975 322.564 C 278.702 321.614,275.062 321.879,269.697 323.384 C 264.950 324.716,264.734 324.741,262.897 324.163 C 261.854 323.835,259.207 323.387,257.015 323.168 C 252.274 322.694,252.391 322.777,248.739 317.262 C 245.687 312.651,245.574 312.184,247.000 310.086 C 250.538 304.880,243.212 299.406,236.199 302.016 C 229.647 304.455,228.705 303.018,231.622 295.032 C 233.103 290.977,234.777 288.833,237.575 287.409 C 240.060 286.143,240.905 285.095,242.184 281.690 C 244.142 276.479,246.685 274.317,252.891 272.587 C 257.537 271.292,258.012 268.042,254.624 260.736 L 253.574 258.472 254.227 255.536 C 255.170 251.295,255.571 250.800,258.069 250.800 C 259.358 250.800,261.618 250.288,264.159 249.421 C 267.777 248.185,268.618 248.046,272.200 248.088 C 275.445 248.126,276.653 247.966,278.600 247.238 C 280.219 246.632,282.496 246.232,285.600 246.008 C 292.466 245.513,298.101 243.113,302.600 238.766 C 304.620 236.814,308.662 234.305,309.400 234.546 C 309.620 234.617,309.741 235.577,309.668 236.682 M241.087 237.333 C 241.449 237.682,241.500 238.990,241.287 242.401 L 241.000 247.000 239.600 247.672 C 235.267 249.750,232.004 248.106,231.998 243.840 C 231.996 242.938,231.726 241.684,231.398 241.054 C 230.690 239.697,230.632 238.261,231.240 237.125 C 231.742 236.186,240.081 236.363,241.087 237.333 M88.004 252.804 C 88.622 253.466,89.930 255.671,90.910 257.704 C 93.021 262.084,93.213 262.273,98.241 264.935 C 103.028 267.469,103.637 268.226,103.905 271.972 C 104.142 275.279,103.900 275.693,100.644 277.557 C 99.520 278.200,97.435 279.913,96.012 281.363 C 93.581 283.839,93.312 284.000,91.612 284.006 C 89.179 284.014,87.950 284.700,87.042 286.556 L 86.283 288.106 85.544 287.153 C 83.613 284.663,77.754 274.715,74.643 268.642 C 70.646 260.840,70.594 261.562,75.345 258.744 C 76.915 257.812,79.401 255.824,80.870 254.325 C 84.110 251.018,85.966 250.622,88.004 252.804 M238.200 255.463 C 234.824 257.237,233.432 260.167,234.987 262.224 C 235.310 262.651,235.580 263.455,235.587 264.011 C 235.629 267.309,237.776 267.505,241.351 264.538 C 243.920 262.406,244.058 262.206,243.778 261.038 C 243.614 260.357,243.439 258.945,243.389 257.900 C 243.241 254.822,241.223 253.874,238.200 255.463 M241.642 259.004 L 241.885 261.400 240.042 263.085 C 237.935 265.012,237.600 265.131,237.600 263.954 C 237.600 263.489,237.213 262.420,236.739 261.577 C 235.693 259.715,236.223 258.538,238.704 257.220 C 240.977 256.012,241.363 256.247,241.642 259.004 M130.841 284.300 C 131.613 285.125,132.908 286.639,133.720 287.664 C 138.600 293.832,147.610 297.815,156.600 297.780 L 161.800 297.759 169.000 295.312 C 181.893 290.929,184.875 290.648,188.068 293.515 C 189.240 294.569,191.245 296.309,192.523 297.384 C 196.907 301.069,199.039 307.089,198.905 315.400 C 198.862 318.040,199.004 320.751,199.220 321.425 C 199.996 323.845,205.137 327.719,209.017 328.805 C 212.350 329.738,214.829 332.491,217.796 338.553 C 221.726 346.583,221.914 346.100,214.583 346.790 C 176.939 350.330,137.637 337.474,108.400 312.057 C 106.750 310.623,105.249 309.323,105.065 309.170 C 104.881 309.016,105.961 308.026,107.465 306.970 C 118.768 299.034,122.400 294.613,122.400 288.790 C 122.400 283.879,127.773 281.021,130.841 284.300 " stroke="none" fill="#f8fafb" fill-rule="evenodd"></path><path id="path2" d="M178.800 62.671 C 107.352 74.837,55.895 138.384,59.264 210.293 C 59.821 222.172,60.557 225.628,61.950 222.898 C 63.464 219.930,66.130 218.102,69.047 218.030 C 71.227 217.977,83.953 221.977,92.800 225.495 C 104.917 230.314,105.818 230.230,110.763 223.823 C 114.606 218.846,117.606 216.086,123.600 212.011 C 132.258 206.127,132.497 204.408,126.188 193.392 C 122.769 187.421,122.183 185.273,122.835 181.104 C 124.988 167.333,131.668 163.676,144.219 169.396 C 147.914 171.080,148.939 171.937,150.202 174.400 C 151.438 176.810,152.638 177.848,157.600 180.805 C 166.220 185.940,169.595 189.111,171.238 193.617 C 172.290 196.500,173.421 197.595,175.812 198.042 C 178.238 198.495,178.651 198.240,181.560 194.499 C 184.107 191.225,186.488 189.153,191.933 185.475 C 195.877 182.811,196.927 182.558,201.552 183.151 C 212.040 184.496,214.084 183.673,217.270 176.823 C 220.752 169.337,220.711 167.040,216.990 161.332 C 211.770 153.324,211.645 150.946,216.091 144.200 C 219.028 139.744,220.084 139.245,224.159 140.389 C 229.564 141.905,233.600 138.686,233.600 132.858 C 233.600 130.398,234.386 128.714,236.986 125.600 C 239.982 122.012,239.914 120.540,236.604 117.325 C 232.652 113.486,227.504 113.517,219.496 117.426 C 209.462 122.325,204.555 119.241,207.200 109.697 C 208.346 105.561,208.252 104.452,206.544 101.940 C 205.744 100.763,204.509 98.540,203.799 97.000 C 200.950 90.813,195.216 87.708,191.098 90.121 C 188.076 91.893,185.065 92.535,181.013 92.274 C 169.467 91.531,166.501 87.033,173.270 80.532 C 178.479 75.530,181.346 69.932,181.123 65.204 C 180.993 62.453,180.870 62.319,178.800 62.671 M288.086 91.308 C 287.617 91.808,286.695 93.403,286.037 94.854 C 285.379 96.305,284.201 98.551,283.419 99.846 C 282.637 101.141,281.164 104.180,280.146 106.600 C 277.407 113.110,277.017 113.768,274.039 116.916 C 269.458 121.757,269.143 123.300,271.636 128.688 C 279.743 146.213,280.248 156.308,273.384 163.617 C 269.075 168.206,268.491 170.583,269.614 178.962 C 270.839 188.100,268.018 192.000,260.181 192.000 C 250.134 192.000,249.824 196.454,259.200 206.114 C 266.517 213.652,268.639 214.189,273.178 209.650 C 278.082 204.746,287.672 203.550,294.211 207.026 C 296.648 208.322,296.901 208.285,299.534 206.239 C 300.780 205.271,303.258 203.753,305.040 202.865 C 308.652 201.066,310.984 198.796,313.464 194.666 C 324.804 175.780,327.346 174.644,333.970 185.499 C 336.858 190.232,337.685 191.002,340.295 191.392 C 341.343 191.548,342.793 191.923,343.518 192.225 C 345.385 193.003,345.436 192.628,344.428 185.496 C 339.104 147.826,321.368 116.170,292.356 92.552 C 289.345 90.102,289.247 90.073,288.086 91.308 M205.600 229.460 C 205.050 229.543,203.841 229.708,202.914 229.828 C 201.817 229.969,200.299 230.681,198.571 231.864 C 195.160 234.199,193.133 235.081,190.400 235.419 C 183.321 236.295,181.573 240.821,185.890 247.097 C 186.980 248.682,188.042 250.843,188.455 252.321 C 189.647 256.580,192.969 260.427,198.142 263.539 C 203.117 266.532,204.413 266.114,207.876 260.400 C 209.931 257.009,213.769 252.299,218.798 246.997 C 222.611 242.976,222.971 242.187,223.453 236.800 C 223.830 232.579,223.799 232.402,222.485 231.311 C 220.447 229.619,211.238 228.609,205.600 229.460 M306.800 235.625 C 305.590 236.290,303.700 237.703,302.600 238.766 C 298.101 243.113,292.466 245.513,285.600 246.008 C 282.496 246.232,280.219 246.632,278.600 247.238 C 276.653 247.966,275.445 248.126,272.200 248.088 C 268.618 248.046,267.777 248.185,264.159 249.421 C 261.618 250.288,259.358 250.800,258.069 250.800 C 255.571 250.800,255.170 251.295,254.227 255.536 L 253.574 258.472 254.624 260.736 C 258.012 268.042,257.537 271.292,252.891 272.587 C 246.685 274.317,244.142 276.479,242.184 281.690 C 240.905 285.095,240.060 286.143,237.575 287.409 C 234.777 288.833,233.103 290.977,231.622 295.032 C 228.705 303.018,229.647 304.455,236.199 302.016 C 243.212 299.406,250.538 304.880,247.000 310.086 C 245.574 312.184,245.687 312.651,248.739 317.262 C 252.391 322.777,252.274 322.694,257.015 323.168 C 259.207 323.387,261.854 323.835,262.897 324.163 C 264.734 324.741,264.950 324.716,269.697 323.384 C 275.062 321.879,278.702 321.614,280.975 322.564 C 282.485 323.195,282.726 323.092,285.772 320.525 C 286.637 319.796,287.516 319.200,287.726 319.200 C 289.035 319.200,303.191 306.678,307.856 301.394 C 316.039 292.124,325.459 279.361,325.846 277.019 C 325.884 276.789,327.194 274.261,328.758 271.403 C 332.045 265.391,331.894 266.043,330.543 263.739 C 329.560 262.062,329.502 261.702,329.719 258.623 C 330.059 253.809,328.696 252.400,323.697 252.400 C 321.285 252.400,320.870 252.240,316.032 249.448 C 312.882 247.630,312.814 247.539,311.002 242.647 C 309.871 239.594,309.566 238.230,309.668 236.682 C 309.831 234.207,309.561 234.107,306.800 235.625 M231.240 237.125 C 230.632 238.261,230.690 239.697,231.398 241.054 C 231.726 241.684,231.996 242.938,231.998 243.840 C 232.004 248.106,235.267 249.750,239.600 247.672 L 241.000 247.000 241.287 242.401 C 241.641 236.734,241.823 236.940,236.140 236.583 C 231.901 236.316,231.659 236.343,231.240 237.125 M80.870 254.325 C 79.401 255.824,76.915 257.812,75.345 258.744 C 70.594 261.562,70.646 260.840,74.643 268.642 C 77.754 274.715,83.613 284.663,85.544 287.153 L 86.283 288.106 87.042 286.556 C 87.950 284.700,89.179 284.014,91.612 284.006 C 93.312 284.000,93.581 283.839,96.012 281.363 C 97.435 279.913,99.520 278.200,100.644 277.557 C 103.900 275.693,104.142 275.279,103.905 271.972 C 103.637 268.226,103.028 267.469,98.241 264.935 C 93.213 262.273,93.021 262.084,90.910 257.704 C 87.406 250.435,85.357 249.745,80.870 254.325 M238.704 257.225 C 236.219 258.537,235.723 259.662,236.728 261.708 C 237.184 262.639,237.656 263.727,237.776 264.126 C 238.344 266.012,241.900 261.818,241.710 259.488 C 241.424 255.983,241.272 255.869,238.704 257.225 M125.769 283.559 C 123.289 284.685,122.400 286.065,122.400 288.790 C 122.400 294.613,118.768 299.034,107.465 306.970 C 105.961 308.026,104.881 309.016,105.065 309.170 C 105.249 309.323,106.750 310.623,108.400 312.057 C 137.637 337.474,176.939 350.330,214.583 346.790 C 221.914 346.100,221.726 346.583,217.796 338.553 C 214.829 332.491,212.350 329.738,209.017 328.805 C 205.137 327.719,199.996 323.845,199.220 321.425 C 199.004 320.751,198.862 318.040,198.905 315.400 C 199.039 307.089,196.907 301.069,192.523 297.384 C 191.245 296.309,189.240 294.569,188.068 293.515 C 184.875 290.648,181.893 290.929,169.000 295.312 L 161.800 297.759 156.600 297.780 C 147.610 297.815,138.600 293.832,133.720 287.664 C 129.671 282.548,128.886 282.143,125.769 283.559 " stroke="none" fill="#44a414" fill-rule="evenodd"></path></g></svg>