<svg id="svg" version="1.1" xmlns="http://www.w3.org/2000/svg" xmlns:xlink="http://www.w3.org/1999/xlink" width="400" height="400" viewBox="0, 0, 400,400"><g id="svgg"><path id="path0" d="M58.761 264.022 L 25.627 289.746 26.808 291.992 C 64.738 364.161,139.652 405.709,220.703 399.529 C 265.986 396.076,304.342 380.504,334.612 353.283 L 336.508 351.577 304.249 326.503 L 271.989 301.429 270.418 302.441 C 251.332 314.751,227.463 321.122,202.246 320.638 C 153.601 319.704,109.820 287.711,93.186 240.941 C 92.690 239.549,92.197 238.385,92.090 238.354 C 91.982 238.323,76.984 249.874,58.761 264.022 " stroke="none" fill="#34ab54" fill-rule="evenodd"></path><path id="path1" d="M204.150 204.248 L 204.199 241.895 258.057 241.944 C 304.452 241.986,311.914 242.031,311.914 242.270 C 311.914 243.848,308.957 253.738,307.063 258.496 C 303.549 267.322,296.896 278.333,291.707 283.910 C 291.595 284.030,290.934 284.777,290.237 285.570 C 286.021 290.370,280.195 295.587,274.561 299.609 C 273.298 300.510,272.266 301.305,272.266 301.375 C 272.266 301.502,335.467 350.680,336.292 351.194 C 336.700 351.449,336.934 351.246,341.262 346.873 C 347.310 340.765,348.958 338.943,353.711 333.114 C 377.269 304.218,392.121 264.874,395.111 223.438 C 395.224 221.880,395.357 220.078,395.408 219.434 C 395.848 213.841,395.938 201.997,395.598 194.336 C 395.255 186.592,394.357 177.646,393.108 169.531 L 392.672 166.699 298.386 166.650 L 204.101 166.601 204.150 204.248 " stroke="none" fill="#4484f3" fill-rule="evenodd"></path><path id="path2" d="M24.085 113.428 C 0.344 162.976,-2.300 218.212,16.633 269.108 C 18.961 275.366,24.832 288.777,25.564 289.510 C 25.668 289.613,39.175 279.254,58.613 264.162 C 76.693 250.124,91.637 238.532,91.822 238.403 C 92.135 238.184,92.089 237.941,91.184 235.050 C 86.103 218.822,84.651 200.880,87.031 183.744 C 87.886 177.584,89.329 171.121,91.210 165.024 C 92.123 162.064,92.165 161.837,91.846 161.614 C 91.658 161.482,76.717 149.894,58.645 135.863 C 40.572 121.832,25.735 110.352,25.672 110.352 C 25.610 110.352,24.896 111.736,24.085 113.428 " stroke="none" fill="#fbbb04" fill-rule="evenodd"></path><path id="path3" d="M192.969 0.212 C 122.600 4.332,60.681 44.234,27.381 106.918 L 25.625 110.223 40.108 121.471 C 83.482 155.156,91.846 161.621,92.052 161.621 C 92.177 161.621,92.685 160.475,93.182 159.074 C 112.923 103.429,170.240 70.218,227.148 81.449 C 246.652 85.298,264.170 94.112,278.906 107.490 C 279.927 108.417,280.850 109.176,280.957 109.177 C 281.065 109.179,293.970 96.362,309.636 80.696 L 338.119 52.212 336.101 50.343 C 298.166 15.212,246.404 -2.917,192.969 0.212 " stroke="none" fill="#ec4434" fill-rule="evenodd"></path><path id="path4" d="" stroke="none" fill="#3c88ea" fill-rule="evenodd"></path></g></svg>